<mxfile host="app.diagrams.net" modified="2023-02-07T00:56:34.346Z" agent="5.0 (Windows NT 10.0; Win64; x64) AppleWebKit/537.36 (KHTML, like Gecko) Chrome/109.0.0.0 Safari/537.36" etag="UTCgjM87IADBEcmMo5pz" version="20.8.17" type="github">
  <diagram name="페이지-1" id="lucKnAjo4hEsz379RO6Y">
    <mxGraphModel dx="989" dy="543" grid="1" gridSize="10" guides="1" tooltips="1" connect="1" arrows="1" fold="1" page="1" pageScale="1" pageWidth="827" pageHeight="1169" math="0" shadow="0">
      <root>
        <mxCell id="0" />
        <mxCell id="1" parent="0" />
        <mxCell id="MwGMKD4Xf8rgQU5NLyPk-2" value="DB" style="shape=cylinder3;whiteSpace=wrap;html=1;boundedLbl=1;backgroundOutline=1;size=15;" vertex="1" parent="1">
          <mxGeometry x="697" y="350" width="90" height="70" as="geometry" />
        </mxCell>
        <mxCell id="MwGMKD4Xf8rgQU5NLyPk-3" value="DAO" style="whiteSpace=wrap;html=1;aspect=fixed;" vertex="1" parent="1">
          <mxGeometry x="577" y="350" width="80" height="80" as="geometry" />
        </mxCell>
        <mxCell id="MwGMKD4Xf8rgQU5NLyPk-5" value="Service" style="whiteSpace=wrap;html=1;aspect=fixed;" vertex="1" parent="1">
          <mxGeometry x="457" y="350" width="80" height="80" as="geometry" />
        </mxCell>
        <mxCell id="MwGMKD4Xf8rgQU5NLyPk-6" value="Controller" style="whiteSpace=wrap;html=1;aspect=fixed;" vertex="1" parent="1">
          <mxGeometry x="341" y="350" width="80" height="80" as="geometry" />
        </mxCell>
        <mxCell id="MwGMKD4Xf8rgQU5NLyPk-7" value="JSP" style="whiteSpace=wrap;html=1;aspect=fixed;" vertex="1" parent="1">
          <mxGeometry x="112" y="520" width="80" height="80" as="geometry" />
        </mxCell>
        <mxCell id="MwGMKD4Xf8rgQU5NLyPk-8" value="DS" style="whiteSpace=wrap;html=1;aspect=fixed;" vertex="1" parent="1">
          <mxGeometry x="192" y="350" width="80" height="80" as="geometry" />
        </mxCell>
        <mxCell id="MwGMKD4Xf8rgQU5NLyPk-9" value="Internal&lt;br&gt;Resource&lt;br&gt;ViewResolver" style="whiteSpace=wrap;html=1;aspect=fixed;" vertex="1" parent="1">
          <mxGeometry x="262" y="520" width="80" height="80" as="geometry" />
        </mxCell>
        <mxCell id="MwGMKD4Xf8rgQU5NLyPk-10" value="" style="endArrow=classic;html=1;rounded=0;entryX=0.004;entryY=0.32;entryDx=0;entryDy=0;entryPerimeter=0;" edge="1" parent="1" target="MwGMKD4Xf8rgQU5NLyPk-5">
          <mxGeometry width="50" height="50" relative="1" as="geometry">
            <mxPoint x="420" y="376" as="sourcePoint" />
            <mxPoint x="417" y="376" as="targetPoint" />
          </mxGeometry>
        </mxCell>
        <mxCell id="MwGMKD4Xf8rgQU5NLyPk-15" value="" style="endArrow=classic;html=1;rounded=0;entryX=-0.005;entryY=0.329;entryDx=0;entryDy=0;entryPerimeter=0;exitX=0.995;exitY=0.329;exitDx=0;exitDy=0;exitPerimeter=0;" edge="1" parent="1" source="MwGMKD4Xf8rgQU5NLyPk-5" target="MwGMKD4Xf8rgQU5NLyPk-3">
          <mxGeometry width="50" height="50" relative="1" as="geometry">
            <mxPoint x="548" y="375.8" as="sourcePoint" />
            <mxPoint x="568" y="375.8" as="targetPoint" />
          </mxGeometry>
        </mxCell>
        <mxCell id="MwGMKD4Xf8rgQU5NLyPk-16" value="" style="endArrow=classic;html=1;rounded=0;" edge="1" parent="1">
          <mxGeometry width="50" height="50" relative="1" as="geometry">
            <mxPoint x="657" y="376" as="sourcePoint" />
            <mxPoint x="697" y="375.79999999999995" as="targetPoint" />
          </mxGeometry>
        </mxCell>
        <mxCell id="MwGMKD4Xf8rgQU5NLyPk-20" value="" style="endArrow=classic;html=1;rounded=0;" edge="1" parent="1">
          <mxGeometry relative="1" as="geometry">
            <mxPoint x="696" y="398" as="sourcePoint" />
            <mxPoint x="656" y="398" as="targetPoint" />
            <Array as="points">
              <mxPoint x="696" y="398" />
            </Array>
          </mxGeometry>
        </mxCell>
        <mxCell id="MwGMKD4Xf8rgQU5NLyPk-21" value="" style="shape=message;html=1;outlineConnect=0;" vertex="1" parent="MwGMKD4Xf8rgQU5NLyPk-20">
          <mxGeometry width="20" height="14" relative="1" as="geometry">
            <mxPoint x="-6" y="-7" as="offset" />
          </mxGeometry>
        </mxCell>
        <mxCell id="MwGMKD4Xf8rgQU5NLyPk-22" value="" style="endArrow=classic;html=1;rounded=0;" edge="1" parent="1">
          <mxGeometry relative="1" as="geometry">
            <mxPoint x="577" y="398" as="sourcePoint" />
            <mxPoint x="537" y="398" as="targetPoint" />
            <Array as="points">
              <mxPoint x="577" y="398" />
            </Array>
          </mxGeometry>
        </mxCell>
        <mxCell id="MwGMKD4Xf8rgQU5NLyPk-23" value="" style="shape=message;html=1;outlineConnect=0;" vertex="1" parent="MwGMKD4Xf8rgQU5NLyPk-22">
          <mxGeometry width="20" height="14" relative="1" as="geometry">
            <mxPoint x="-6" y="-7" as="offset" />
          </mxGeometry>
        </mxCell>
        <mxCell id="MwGMKD4Xf8rgQU5NLyPk-24" value="" style="endArrow=classic;html=1;rounded=0;" edge="1" parent="1">
          <mxGeometry relative="1" as="geometry">
            <mxPoint x="455.9999999999998" y="398.0000000000001" as="sourcePoint" />
            <mxPoint x="420" y="398" as="targetPoint" />
            <Array as="points">
              <mxPoint x="456" y="398" />
            </Array>
          </mxGeometry>
        </mxCell>
        <mxCell id="MwGMKD4Xf8rgQU5NLyPk-25" value="" style="shape=message;html=1;outlineConnect=0;" vertex="1" parent="MwGMKD4Xf8rgQU5NLyPk-24">
          <mxGeometry width="20" height="14" relative="1" as="geometry">
            <mxPoint x="-6" y="-7" as="offset" />
          </mxGeometry>
        </mxCell>
        <mxCell id="MwGMKD4Xf8rgQU5NLyPk-26" value="" style="endArrow=classic;html=1;rounded=0;entryX=0.037;entryY=0.338;entryDx=0;entryDy=0;entryPerimeter=0;exitX=1.004;exitY=0.338;exitDx=0;exitDy=0;exitPerimeter=0;" edge="1" parent="1" source="MwGMKD4Xf8rgQU5NLyPk-8" target="MwGMKD4Xf8rgQU5NLyPk-6">
          <mxGeometry width="50" height="50" relative="1" as="geometry">
            <mxPoint x="292.9999999999998" y="377" as="sourcePoint" />
            <mxPoint x="333.3199999999997" y="376.5999999999999" as="targetPoint" />
          </mxGeometry>
        </mxCell>
        <mxCell id="MwGMKD4Xf8rgQU5NLyPk-27" value="" style="endArrow=classic;html=1;rounded=0;entryX=0.987;entryY=0.613;entryDx=0;entryDy=0;entryPerimeter=0;" edge="1" parent="1">
          <mxGeometry relative="1" as="geometry">
            <mxPoint x="331.9999999999998" y="398.0000000000001" as="sourcePoint" />
            <mxPoint x="270.96000000000004" y="398.03999999999996" as="targetPoint" />
            <Array as="points">
              <mxPoint x="340" y="398" />
              <mxPoint x="332" y="398" />
            </Array>
          </mxGeometry>
        </mxCell>
        <mxCell id="MwGMKD4Xf8rgQU5NLyPk-28" value="" style="shape=message;html=1;outlineConnect=0;" vertex="1" parent="MwGMKD4Xf8rgQU5NLyPk-27">
          <mxGeometry width="20" height="14" relative="1" as="geometry">
            <mxPoint x="-11" y="-7" as="offset" />
          </mxGeometry>
        </mxCell>
        <mxCell id="MwGMKD4Xf8rgQU5NLyPk-29" value="&lt;font style=&quot;font-size: 9px;&quot;&gt;ModelAndView&lt;/font&gt;" style="text;html=1;align=center;verticalAlign=middle;resizable=0;points=[];autosize=1;strokeColor=none;fillColor=none;" vertex="1" parent="1">
          <mxGeometry x="261" y="400" width="90" height="30" as="geometry" />
        </mxCell>
        <mxCell id="MwGMKD4Xf8rgQU5NLyPk-30" value="" style="endArrow=classic;html=1;rounded=0;entryX=0.75;entryY=0;entryDx=0;entryDy=0;startArrow=none;" edge="1" parent="1" source="MwGMKD4Xf8rgQU5NLyPk-33" target="MwGMKD4Xf8rgQU5NLyPk-9">
          <mxGeometry width="50" height="50" relative="1" as="geometry">
            <mxPoint x="254" y="430" as="sourcePoint" />
            <mxPoint x="329.1199999999999" y="521.1199999999999" as="targetPoint" />
          </mxGeometry>
        </mxCell>
        <mxCell id="MwGMKD4Xf8rgQU5NLyPk-32" value="" style="endArrow=classic;html=1;rounded=0;exitX=0.5;exitY=0;exitDx=0;exitDy=0;entryX=0.66;entryY=1.001;entryDx=0;entryDy=0;entryPerimeter=0;" edge="1" parent="1" source="MwGMKD4Xf8rgQU5NLyPk-9" target="MwGMKD4Xf8rgQU5NLyPk-8">
          <mxGeometry width="50" height="50" relative="1" as="geometry">
            <mxPoint x="302" y="520" as="sourcePoint" />
            <mxPoint x="240" y="430" as="targetPoint" />
          </mxGeometry>
        </mxCell>
        <mxCell id="MwGMKD4Xf8rgQU5NLyPk-34" value="" style="endArrow=classic;html=1;rounded=0;startArrow=none;entryX=0.694;entryY=-0.003;entryDx=0;entryDy=0;entryPerimeter=0;" edge="1" parent="1" source="MwGMKD4Xf8rgQU5NLyPk-35" target="MwGMKD4Xf8rgQU5NLyPk-7">
          <mxGeometry width="50" height="50" relative="1" as="geometry">
            <mxPoint x="222" y="430" as="sourcePoint" />
            <mxPoint x="162" y="520" as="targetPoint" />
          </mxGeometry>
        </mxCell>
        <mxCell id="MwGMKD4Xf8rgQU5NLyPk-36" value="" style="endArrow=none;html=1;rounded=0;" edge="1" parent="1">
          <mxGeometry width="50" height="50" relative="1" as="geometry">
            <mxPoint x="222" y="430" as="sourcePoint" />
            <mxPoint x="202" y="460" as="targetPoint" />
          </mxGeometry>
        </mxCell>
        <mxCell id="MwGMKD4Xf8rgQU5NLyPk-35" value="Model" style="text;html=1;align=center;verticalAlign=middle;resizable=0;points=[];autosize=1;strokeColor=none;fillColor=none;" vertex="1" parent="1">
          <mxGeometry x="162" y="465" width="60" height="30" as="geometry" />
        </mxCell>
        <mxCell id="MwGMKD4Xf8rgQU5NLyPk-37" value="" style="endArrow=none;html=1;rounded=0;exitX=0.048;exitY=1.049;exitDx=0;exitDy=0;exitPerimeter=0;" edge="1" parent="1" source="MwGMKD4Xf8rgQU5NLyPk-29" target="MwGMKD4Xf8rgQU5NLyPk-33">
          <mxGeometry width="50" height="50" relative="1" as="geometry">
            <mxPoint x="252" y="430" as="sourcePoint" />
            <mxPoint x="329.1199999999999" y="521.1199999999999" as="targetPoint" />
          </mxGeometry>
        </mxCell>
        <mxCell id="MwGMKD4Xf8rgQU5NLyPk-33" value="View" style="text;html=1;align=center;verticalAlign=middle;resizable=0;points=[];autosize=1;strokeColor=none;fillColor=none;" vertex="1" parent="1">
          <mxGeometry x="267" y="460" width="50" height="30" as="geometry" />
        </mxCell>
        <mxCell id="MwGMKD4Xf8rgQU5NLyPk-38" value="" style="endArrow=classic;html=1;rounded=0;exitX=0.25;exitY=0;exitDx=0;exitDy=0;" edge="1" parent="1">
          <mxGeometry width="50" height="50" relative="1" as="geometry">
            <mxPoint x="142" y="520" as="sourcePoint" />
            <mxPoint x="202" y="430" as="targetPoint" />
          </mxGeometry>
        </mxCell>
        <mxCell id="MwGMKD4Xf8rgQU5NLyPk-39" value="prefix+ViewName+suffix" style="text;html=1;align=center;verticalAlign=middle;resizable=0;points=[];autosize=1;strokeColor=none;fillColor=none;" vertex="1" parent="1">
          <mxGeometry x="342" y="545" width="150" height="30" as="geometry" />
        </mxCell>
        <mxCell id="MwGMKD4Xf8rgQU5NLyPk-40" value="" style="endArrow=classic;html=1;rounded=0;startArrow=none;" edge="1" parent="1" source="MwGMKD4Xf8rgQU5NLyPk-43">
          <mxGeometry width="50" height="50" relative="1" as="geometry">
            <mxPoint x="2" y="363" as="sourcePoint" />
            <mxPoint x="192" y="358" as="targetPoint" />
          </mxGeometry>
        </mxCell>
        <mxCell id="MwGMKD4Xf8rgQU5NLyPk-41" value="URL(ip:port), Method, parameter" style="text;html=1;align=center;verticalAlign=middle;resizable=0;points=[];autosize=1;strokeColor=none;fillColor=none;" vertex="1" parent="1">
          <mxGeometry x="3" y="301" width="200" height="30" as="geometry" />
        </mxCell>
        <mxCell id="MwGMKD4Xf8rgQU5NLyPk-44" value="" style="endArrow=none;html=1;rounded=0;entryX=0;entryY=0.5;entryDx=0;entryDy=0;" edge="1" parent="1" target="MwGMKD4Xf8rgQU5NLyPk-42">
          <mxGeometry width="50" height="50" relative="1" as="geometry">
            <mxPoint x="22" y="358" as="sourcePoint" />
            <mxPoint x="191.99999999999977" y="362.9999999999998" as="targetPoint" />
          </mxGeometry>
        </mxCell>
        <mxCell id="MwGMKD4Xf8rgQU5NLyPk-42" value="&lt;font style=&quot;font-size: 10px;&quot;&gt;Request&lt;/font&gt;" style="ellipse;whiteSpace=wrap;html=1;aspect=fixed;" vertex="1" parent="1">
          <mxGeometry x="48" y="333" width="50" height="50" as="geometry" />
        </mxCell>
        <mxCell id="MwGMKD4Xf8rgQU5NLyPk-45" value="" style="endArrow=none;html=1;rounded=0;entryX=0;entryY=0.5;entryDx=0;entryDy=0;startArrow=none;" edge="1" parent="1" source="MwGMKD4Xf8rgQU5NLyPk-42" target="MwGMKD4Xf8rgQU5NLyPk-43">
          <mxGeometry width="50" height="50" relative="1" as="geometry">
            <mxPoint x="71.98612267447561" y="358.83287075581586" as="sourcePoint" />
            <mxPoint x="191.99999999999977" y="362.9999999999998" as="targetPoint" />
          </mxGeometry>
        </mxCell>
        <mxCell id="MwGMKD4Xf8rgQU5NLyPk-43" value="&lt;font style=&quot;font-size: 10px;&quot;&gt;Response&lt;/font&gt;" style="ellipse;whiteSpace=wrap;html=1;aspect=fixed;" vertex="1" parent="1">
          <mxGeometry x="112" y="333" width="50" height="50" as="geometry" />
        </mxCell>
        <mxCell id="MwGMKD4Xf8rgQU5NLyPk-46" value="" style="endArrow=classic;html=1;rounded=0;startArrow=none;exitX=-0.013;exitY=0.82;exitDx=0;exitDy=0;exitPerimeter=0;" edge="1" parent="1">
          <mxGeometry width="50" height="50" relative="1" as="geometry">
            <mxPoint x="190.96000000000004" y="396.5999999999999" as="sourcePoint" />
            <mxPoint x="22" y="396" as="targetPoint" />
          </mxGeometry>
        </mxCell>
        <mxCell id="MwGMKD4Xf8rgQU5NLyPk-48" value="Redirect" style="edgeLabel;html=1;align=center;verticalAlign=middle;resizable=0;points=[];fontSize=10;" vertex="1" connectable="0" parent="MwGMKD4Xf8rgQU5NLyPk-46">
          <mxGeometry x="0.1758" y="1" relative="1" as="geometry">
            <mxPoint x="8" y="-2" as="offset" />
          </mxGeometry>
        </mxCell>
        <mxCell id="MwGMKD4Xf8rgQU5NLyPk-47" value="" style="endArrow=classic;html=1;rounded=0;startArrow=none;exitX=-0.013;exitY=0.82;exitDx=0;exitDy=0;exitPerimeter=0;" edge="1" parent="1">
          <mxGeometry width="50" height="50" relative="1" as="geometry">
            <mxPoint x="192.00000000000003" y="425.9099999999999" as="sourcePoint" />
            <mxPoint x="22" y="426" as="targetPoint" />
          </mxGeometry>
        </mxCell>
        <mxCell id="MwGMKD4Xf8rgQU5NLyPk-49" value="Fowarding Redirect" style="text;html=1;align=center;verticalAlign=middle;resizable=0;points=[];autosize=1;strokeColor=none;fillColor=none;fontSize=10;" vertex="1" parent="1">
          <mxGeometry x="48" y="190" width="110" height="30" as="geometry" />
        </mxCell>
      </root>
    </mxGraphModel>
  </diagram>
</mxfile>
